<svg width="32" height="29" viewBox="0 0 32 29" fill="none" xmlns="http://www.w3.org/2000/svg">
<g clip-path="url(#clip0_320_21267)">
<path fill-rule="evenodd" clip-rule="evenodd" d="M0.542142 0.17823C0.542142 0.17823 0.630292 3.06554 0.669537 5.46106C0.682216 6.24286 0.484784 14.961 0.440105 15.5682C0.324784 17.1463 0.0162535 22.9088 0.00780069 23.635C-0.0193691 26.0082 0.0331591 28.9831 0.0331591 28.9831C0.0331591 28.9831 0.104403 28.9764 0.236026 28.9631C15.2923 27.4455 16.3145 27.3035 31.4336 27.6515C31.5767 27.6551 31.6781 27.6594 31.6781 27.6594C31.6781 27.6594 31.6727 27.6038 31.6637 27.5107C30.7133 18.3582 30.4658 9.309 31.8985 0.168562C31.9148 0.0598121 31.9245 0 31.9245 0C31.9245 0 31.8913 0.00302113 31.8297 0.00785446C24.6224 0.596313 7.7995 0.553417 0.582595 0.180646C0.556029 0.178833 0.542142 0.17823 0.542142 0.17823Z" fill="#034089"/>
<path fill-rule="evenodd" clip-rule="evenodd" d="M13.0611 13.1987C13.0611 13.1987 13.0514 12.7607 13.1088 12.5021C13.6286 10.1615 10.9835 10.1198 9.97038 11.3747C9.92329 11.4333 9.8774 11.4925 9.83514 11.5523C8.6765 13.1534 9.29295 14.8046 10.5585 15.9223C12.5195 17.6556 16.0625 17.6465 18.0446 15.8244C20.336 13.7195 19.9653 9.94947 17.9432 7.89288C15.3597 5.26355 12.7502 6.30211 9.70955 7.08753C9.1245 7.23857 8.68797 7.34551 8.64208 7.33524C8.3402 7.26757 8.17537 6.94495 8.3082 6.4894C8.49718 5.83811 9.11846 5.09076 9.62925 4.69926C9.79891 4.56936 9.9734 4.44672 10.1533 4.33072C12.3891 2.88676 15.0566 2.62938 17.5218 3.3272C22.8096 4.82613 25.3268 10.2648 23.6392 15.1103C23.027 16.8678 21.8013 18.7504 20.0709 19.5678C19.5589 19.8095 19.6573 19.8832 20.0812 20.0149C20.4229 20.1212 20.9409 20.2886 21.3751 20.4517C21.6709 20.5629 23.1073 21.2987 23.9206 21.6999C24.2394 21.8564 25.5127 22.3524 25.8176 22.4382C26.6333 22.6684 27.8191 22.724 28.6421 22.4001C29.1776 22.1887 29.4795 21.921 29.8388 22.1192C30.038 22.2298 29.8629 22.6509 29.6751 22.9862C28.7049 24.7207 26.608 25.4173 24.6523 25.4566C22.3435 25.5013 20.7133 24.6809 18.7523 23.7287C16.8184 22.7892 15.4557 22.4744 13.2942 22.5512C11.7189 22.6074 10.1425 22.91 8.59499 23.2091C8.22427 23.2804 7.65491 23.4985 7.84812 22.9801C8.21944 21.9857 9.41914 21.2927 10.2523 20.7767C10.3803 20.6976 10.4679 20.639 10.48 20.6197C10.5923 20.4324 9.93838 20.1339 9.6045 19.9804C9.59242 19.9756 9.58155 19.9696 9.57008 19.9647C7.26185 19.2071 5.85929 17.719 5.27423 15.4208C4.62638 12.8754 5.10819 10.3373 7.09763 8.69643C8.81657 7.27905 11.5897 6.83861 13.5677 8.05601C15.2142 9.06859 16.0256 12.0483 13.6866 12.9691C13.3708 13.0935 13.0611 13.1987 13.0611 13.1987Z" fill="white"/>
</g>
<defs>
<clipPath id="clip0_320_21267">
<rect width="32" height="29" fill="white"/>
</clipPath>
</defs>
</svg>
