<svg width="24" height="24" viewBox="0 0 24 24" fill="none" xmlns="http://www.w3.org/2000/svg">
<path d="M12 21.8999C11.8833 21.8999 11.775 21.8916 11.675 21.8749C11.575 21.8582 11.475 21.8332 11.375 21.7999C9.125 21.0499 7.33333 19.6624 6 17.6374C4.66667 15.6124 4 13.4332 4 11.0999V6.3749C4 5.95824 4.12083 5.58324 4.3625 5.2499C4.60417 4.91657 4.91667 4.6749 5.3 4.5249L11.3 2.2749C11.5333 2.19157 11.7667 2.1499 12 2.1499C12.2333 2.1499 12.4667 2.19157 12.7 2.2749L18.7 4.5249C19.0833 4.6749 19.3958 4.91657 19.6375 5.2499C19.8792 5.58324 20 5.95824 20 6.3749V11.0999C20 13.4332 19.3333 15.6124 18 17.6374C16.6667 19.6624 14.875 21.0499 12.625 21.7999C12.525 21.8332 12.425 21.8582 12.325 21.8749C12.225 21.8916 12.1167 21.8999 12 21.8999ZM12 19.8999C13.7333 19.3499 15.1667 18.2499 16.3 16.5999C17.4333 14.9499 18 13.1166 18 11.0999V6.3749L12 4.1249L6 6.3749V11.0999C6 13.1166 6.56667 14.9499 7.7 16.5999C8.83333 18.2499 10.2667 19.3499 12 19.8999Z" fill="#0D9ED9"/>
</svg>
